<?xml version="1.0" encoding="UTF-8"?>
<svg id="Layer_1" data-name="Layer 1" xmlns="http://www.w3.org/2000/svg" viewBox="0 0 1080 1080">
  <defs>
    <style>
      .cls-1 {
        fill: #231f20;
        stroke-width: 0px;
      }
    </style>
  </defs>
  <path class="cls-1" d="M313.74,487.03v8.04c0,39.84-32.19,72.23-72,72.23h-60.56l19.08-23.69h45.37l7.22-11.7h-37.73l42.97-8.5v-.03l10.35-16.81h-21.62l24.65-4.88,6.46-10.51v-32.29h-32.29l-1.09.66-2.9,11.66v-9.85l-25.6,15.75-8.63,34.43v-29.1l-14.2,8.73v45.47l84.72-77.76-108.41,108.41v-152.27h72.23c39.81,0,72,32.19,72,72Z"/>
  <path class="cls-1" d="M327.25,463.08v104.22h31.96v-104.22h-31.96ZM343.33,415c-10.45,0-18.72,8.27-18.72,18.52s8.27,18.68,18.72,18.68,18.49-8.27,18.49-18.68-8.24-18.52-18.49-18.52Z"/>
  <path class="cls-1" d="M444.92,447c-15.65,0-30.02,6.52-40.23,16.97v-48.97h-32v152.3h32v-16.97c10.22,10.45,24.58,16.97,40.23,16.97,31.14,0,56.35-25.24,56.35-56.35v-7.61c0-31.11-25.21-56.35-56.35-56.35ZM468.87,519.22c0,17.83-14.37,32-32,32s-31.96-14.17-31.96-32v-24.15c0-17.63,14.33-32,31.96-32s32,14.37,32,32v24.15Z"/>
  <path class="cls-1" d="M608.52,447v16.97c-10.22-10.45-24.35-16.97-40.04-16.97-31.11,0-56.35,25.24-56.35,56.35v7.61c0,31.11,25.24,56.35,56.35,56.35,15.68,0,29.82-6.52,40.04-16.97v16.97h32.19v-120.3h-32.19ZM608.32,519.22c0,17.83-14.37,32-32,32s-31.96-14.17-31.96-32v-24.15c0-17.63,14.33-32,31.96-32s32,14.37,32,32v24.15Z"/>
  <path class="cls-1" d="M715.78,551.22c-8.93,0-16.97-3.49-22.64-9.36-5.87-5.9-9.56-13.71-9.56-22.64v-24.15c0-17.63,14.37-32,32.19-32,8.93,0,16.77,3.49,22.64,9.36,4.78,4.81,8.04,11.1,9.13,18.06l23.72-14.33c-2.41-4.15-5.44-8.07-8.93-11.53-10.87-10.87-25.9-17.63-42.64-17.63h-8.04c-33.08,0-60.07,26.99-60.07,60.27,0,16.54,6.75,31.53,17.63,42.41,10.87,10.87,25.9,17.63,42.44,17.63h8.04c21.98,0,41.12-11.73,51.57-29.16l-23.72-14.33c-2.41,15.42-15.65,27.42-31.76,27.42Z"/>
  <path class="cls-1" d="M909.83,515.11c.46-2.64.66-5.24.66-7.84,0-2.83-.2-5.44-.66-8.07-1.09-8.24-3.89-16.08-8.04-23.03-.23-.46-.66-1.09-.86-1.55-.23-.2-.46-.43-.46-.63-.2-.23-.43-.46-.63-.66,0-.43-.23-.66-.46-.89-.2-.43-.43-.63-.63-.86-.23-.23-.23-.43-.46-.66-.2-.2-.43-.43-.63-.86q-.23-.23-.46-.43c0-.23-.2-.23-.2-.23-.23-.23-.23-.43-.43-.66-.46-.43-.89-1.09-1.32-1.52l-.66-.66c-1.94-2.17-4.12-4.35-6.52-6.29-.43-.23-.86-.66-1.32-.89-3.46-2.6-7.15-4.78-11.07-6.72-.43-.23-.89-.46-1.32-.66-1.09-.43-2.17-.89-3.46-1.32-.66-.2-1.32-.43-1.98-.66-.43-.2-1.09-.43-1.52-.43-.43-.2-.89-.43-1.32-.43-.66-.23-1.09-.23-1.52-.43-4.58-1.09-9.36-1.75-14.37-1.75h-8.04c-16.54,0-31.53,6.76-42.44,17.63-10.87,10.87-17.6,25.87-17.6,42.64,0,4.78.66,9.56,1.75,14.14,0,.66.2,1.09.43,1.52,0,.43.2.89.2,1.52.23.46.46.89.46,1.32.43.66.63,1.32.86,2.17.43,1.09.86,2.18,1.32,3.26.2.43.43.86.63,1.32,1.75,4.12,4.15,7.81,6.76,11.3.23.23.66.66.86,1.09,2.83,3.26,5.9,6.33,9.16,9.13.43.23.86.66,1.09.89,3.46,2.6,7.18,5.01,11.3,6.72.43.23.89.46,1.32.66,1.09.43,2.17.89,3.26,1.32.86.2,1.52.43,2.18.86.43,0,.86.23,1.28.43.66,0,1.09.23,1.55.23.43.23.86.43,1.52.43,4.55,1.09,9.36,1.75,14.14,1.75h11.1c.43,0,.63,0,.86-.23h2.41c.2-.2.43-.2.86-.2h.66c.23,0,.43-.23.66-.23,1.75-.2,3.46-.43,5.21-.86.23,0,.43-.23.66-.23s.66-.2.86-.2c.23,0,.66-.23,1.09-.23,0,0,.23-.23.46-.23.43,0,.63-.2.86-.2s.43-.23.66-.23.43-.2.66-.2c.2,0,.43-.23.66-.23.2,0,.43-.23.63-.23.23,0,.46-.2.46-.2.86-.23,1.52-.43,2.18-.89.2,0,.43,0,.63-.2.23,0,.66-.23.89-.23.2-.2.43-.2.66-.43.2,0,.63-.23.86-.43.23,0,.66-.23.86-.43.23,0,.66-.23.89-.46.2,0,.43-.2.66-.2,0-.23.2-.23.2-.23.23,0,.43-.2.89-.43.2-.23.43-.23.63-.43.23-.23.46-.23.89-.43.2-.23.43-.46.86-.46.23-.2.43-.43.66-.63.43-.23.66-.46,1.09-.66.23,0,.23-.23.43-.23.43-.2.66-.43,1.09-.66.23-.2.43-.43.66-.63.23-.23.43-.46.86-.46.46-.43.89-.63,1.32-1.09,0,0,0-.2.23-.2.2-.23.43-.43.63-.66.23-.23.46-.23.66-.43l.66-.66c.43-.23.66-.43.89-.66.2-.2.43-.43.43-.66q.2,0,.2-.2c.23,0,.46-.23.66-.46.23-.2.43-.43.66-.63v-.23l2.6-2.6v-.23c.23-.2.43-.43.66-.66.23-.2.43-.43.66-.63.43-.46.66-1.09,1.09-1.55.2-.2.43-.43.66-.63.2-.23.2-.46.43-.89l.66-.86c.2-.23.43-.43.43-.66.2-.23.43-.43.43-.66l.23-.2c.2-.46.63-.89.86-1.32v-.23l-23.72-14.33c0,.2-.2.63-.2.86v.23c0,.43-.23,1.09-.23,1.52-.2,0-.2.2-.2.2v.46q0,.2-.23.2v.89c-.23.2-.23.43-.23.63-.2.46-.43.89-.63,1.32v.43c-.23.43-.46.89-.46,1.09q-.2.23-.2.43c-.23.23-.23.46-.23.66,0,0-.2,0-.2.23,0,0,0,.2-.23.43,0,.23-.23.66-.43.86,0,.23-.23.23-.23.46-.2.43-.66,1.09-.86,1.52q-.23.2-.23.43c-.43.43-.66.89-.86,1.09,0,.23-.23.23-.23.23-.2.2-.2.66-.43.86-.23,0-.23.23-.43.43l-.23.23-.2.23c-.23.43-.66.86-.89,1.09-.2.2-.43.43-.43.43-.23.2-.43.43-.66.66-.2.2-.43.43-.43.63-.23,0-.43.23-.66.46h-.23c0,.2-.2.43-.43.43,0,.2-.2.43-.43.43,0,.23-.23.23-.23.23-.2.2-.43.43-.63.43,0,.2-.23.2-.46.43-.2.23-.43.23-.63.43-.23.23-.46.23-.66.43q-.23.23-.43.23c0,.23-.23.23-.23.23v.2c-.23,0-.43,0-.66.23-.2.2-.43.2-.66.43-.2,0-.43.23-.63.23,0,.2-.23.2-.46.43q-.2,0-.43.2c-.2,0-.43.23-.66.23,0,0-.2,0-.2.23h-.23s-.2.2-.43.2-.43.23-.43.23c-.23,0-.43.2-.66.2s-.43.23-.66.23c-.2,0-.2.23-.43.23s-.43.2-.66.2q-.2,0-.43.23c-.23,0-.43,0-.66.2-.66,0-1.09.23-1.52.23q-.23.23-.43.23c-.66,0-1.32.2-1.98.2q-.2.23-.43.23c-.86,0-1.75.23-2.83.23h-5.01c-.2-.23-.43-.23-.63-.23h-1.09c-.23-.23-.46-.23-.66-.23h-.66c0-.2-.23-.2-.43-.2-.23,0-.66-.23-1.09-.23-.23,0-.43-.23-.66-.23s-.43,0-.43-.2h-.66c-.43-.23-1.09-.43-1.52-.66-1.75-.66-3.49-1.32-5.01-2.41q-.23,0-.43-.2s-.23,0-.46-.23h-.2c0-.2-.23-.2-.43-.43,0,0-.23,0-.23-.23h-.23q-.2-.2-.43-.43c-.43-.2-.86-.66-1.29-.86-.46-.43-.89-.66-1.32-1.09-1.09-.89-2.18-1.98-3.26-3.26-.23-.23-.66-.66-.86-1.09-.46-.43-.66-.89-1.09-1.32,0-.2-.23-.43-.23-.43,0,0,0-.23-.23-.23,0,0,0-.2-.2-.43,0,0-.23-.23-.23-.43l-.2-.23s0-.2-.23-.43c0,0,0-.23-.23-.23-.86-1.71-1.75-3.26-2.37-4.98,0-.66-.23-1.09-.46-1.55,0-.2,0-.43-.2-.63v-.66c-.23,0-.23-.23-.23-.43-.2-.46-.2-.89-.2-1.32-.23,0-.23-.23-.23-.23v-.63c-.23-.23-.23-.66-.23-.89v-.86c-.2-.23-.2-.43-.2-.66v-1.75c0-.2,0-.43-.23-.66v-4.98h95.72ZM814.1,495.07c0-17.63,14.37-32,32.19-32,3.26,0,6.52.46,9.59,1.55.43,0,.86.2,1.52.43l5.01,2.41s.23,0,.23.2c.2,0,.43,0,.43.23h.2c.23.2.46.2.46.43.2,0,.2.23.43.23h.2c0,.2.23.2.46.43l1.28.86c.43.43.89.66,1.09,1.09l.89.66.2.23.66.63c.43.46.89.89,1.09,1.09.23.23.43.46.43.66.23,0,.23.23.46.23q0,.2.2.43c.23.43.66.66.89,1.09.2.23.2.43.43.66.2.2.2.43.43.66q.23.2.43.43,0,.23.23.43s0,.23.2.43c.23.23.23.46.46.66.2.43.43.89.63,1.32,0,0,0,.2.23.2,0,.23,0,.46.23.46,0,.43.2.63.43,1.09q0,.2.2.43c0,.2.23.43.23.66.23.43.43,1.09.43,1.52.23,0,.23.2.23.2,0,.23,0,.46.2.66v.43q.23.23.23.46c0,.2,0,.43.23.63v.66c.2.23.2.43.2.66s0,.23.23.43c0,.43,0,1.09.2,1.52v1.32c.23.23.23.43.23.66v6.72h-64.19v-4.12Z"/>
  <g>
    <path class="cls-1" d="M554.02,598.8v31.4c0,7.55-6.03,13.77-13.61,13.87h-.66c-7.38-.1-13.44-6.13-13.51-13.51-.1-.2-.1-.3-.1-.36v-31.4h-13.91v22.21c-.1.76-.1,1.52-.1,2.27v3.33c0,13.51,10.97,24.48,24.48,24.48,6.82,0,12.95-2.83,17.4-7.38v3.86c0,4.74-3.1,8.73-7.38,10.05-.92.26-1.98.46-3,.46-1.15,0-2.27-.2-3.23-.56l-3.3,6.62c2.08.56,4.25.86,6.52.86.92,0,1.78,0,2.74-.1,2.74-.3,5.31-1.05,7.64-2.17,8.24-3.99,14-12.39,14-22.14v-41.78h-14Z"/>
    <path class="cls-1" d="M614.65,598.8v7.38c-4.45-4.55-10.58-7.38-17.4-7.38-13.51,0-24.48,10.97-24.48,24.48v3.33c0,13.51,10.97,24.48,24.48,24.48,6.82,0,12.95-2.83,17.4-7.38v7.38h14v-52.29h-14ZM614.55,630.2c0,7.74-6.23,13.87-13.91,13.87s-13.87-6.13-13.87-13.87v-10.51c0-7.64,6.23-13.91,13.87-13.91s13.91,6.26,13.91,13.91v10.51Z"/>
    <path class="cls-1" d="M675.28,598.8v31.4c0,7.55-6.06,13.77-13.61,13.87h-.66c-7.38-.1-13.44-6.13-13.54-13.51-.1-.2-.1-.3-.1-.36v-31.4h-13.91v22.21c-.07.76-.07,1.52-.07,2.27v3.33c0,13.51,10.94,24.48,24.48,24.48,6.79,0,12.95-2.83,17.4-7.38v3.86c0,4.74-3.13,8.73-7.38,10.05-.96.26-1.98.46-3.03.46-1.12,0-2.27-.2-3.2-.56l-3.33,6.62c2.08.56,4.25.86,6.52.86.96,0,1.81,0,2.74-.1,2.77-.3,5.31-1.05,7.68-2.17,8.24-3.99,14-12.39,14-22.14v-41.78h-14Z"/>
    <path class="cls-1" d="M695.15,605.79v45.31h13.91v-45.31h-13.91Z"/>
    <path class="cls-1" d="M742.8,598.8c-15.42,0-27.88,12.49-27.88,27.88v24.42h13.87v-31.4c0-7.64,6.26-13.91,14-13.91s13.91,6.26,13.91,13.91v31.4h14v-24.42c0-15.39-12.49-27.88-27.91-27.88Z"/>
    <path class="cls-1" d="M775.42,584.9v66.2h13.91v-66.2h-13.91Z"/>
    <path class="cls-1" d="M835.95,598.8v7.38c-4.45-4.55-10.58-7.38-17.4-7.38-13.51,0-24.48,10.97-24.48,24.48v3.33c0,13.51,10.97,24.48,24.48,24.48,6.82,0,12.95-2.83,17.4-7.38v7.38h14v-52.29h-14ZM835.85,630.2c0,7.74-6.23,13.87-13.91,13.87s-13.87-6.13-13.87-13.87v-10.51c0-7.64,6.23-13.91,13.87-13.91s13.91,6.26,13.91,13.91v10.51Z"/>
    <path class="cls-1" d="M884.29,598.8h-3.49c-4.35,0-8.53,1.12-12.19,3.03v-3.03h-13.91v52.29h13.91v-31.4c0-7.64,6.23-13.91,13.97-13.91,2.01,0,3.99.46,5.77,1.22l6.16-6.13c-3.13-1.32-6.62-2.08-10.22-2.08Z"/>
    <path class="cls-1" d="M896.58,605.79v45.31h13.91v-45.31h-13.91Z"/>
  </g>
</svg>