<svg xmlns="http://www.w3.org/2000/svg" width="356.68" height="65.013" viewBox="0 0 356.68 65.013">
  <g id="Group_322" data-name="Group 322" transform="translate(-233 -184)">
    <g id="ravza" transform="translate(216.84 176.69)">
      <g id="Group_1" data-name="Group 1" transform="translate(109.464 14.746)">
        <path id="Path_1" data-name="Path 1" d="M183.215,51.658V35.5q0-3.456,1.666-4.986a7.218,7.218,0,0,1,5.063-1.495,13.923,13.923,0,0,1,2.263.189V19.911h-.88a14.033,14.033,0,0,0-4.5.526,8.721,8.721,0,0,0-4.177,3.119v-2.83H174.1V51.658Z" transform="translate(-174.1 -19.898)" fill="#00614d"/>
        <path id="Path_2" data-name="Path 2" d="M223.983,39.787a6.361,6.361,0,0,1-1.737,4.318,6.747,6.747,0,0,1-5,1.914,3.63,3.63,0,0,1-2.469-.75,2.791,2.791,0,0,1-.868-2.209,3.118,3.118,0,0,1,1.17-2.641,10.993,10.993,0,0,1,4.431-1.7,26.966,26.966,0,0,0,3-.762,4.281,4.281,0,0,0,1.536-.809l-.059,2.641Zm9.109,11.88V32.113q.1-5.875-2.936-9.021T219.765,19.92q-7.5.08-10.634,3.031a10.261,10.261,0,0,0-3.137,7.839h8.229a4.309,4.309,0,0,1,1.371-2.824,5.558,5.558,0,0,1,3.728-1.075,6.849,6.849,0,0,1,3.267.691,2.272,2.272,0,0,1,1.329,2.014,2.3,2.3,0,0,1-.945,2.115,8.753,8.753,0,0,1-3.586,1.028,45.436,45.436,0,0,0-7.42,1.577,10.755,10.755,0,0,0-5.086,3.143,9.21,9.21,0,0,0-1.89,6.1,8.48,8.48,0,0,0,2.458,6.534q2.481,2.348,7.786,2.387a15.574,15.574,0,0,0,5.76-.975,8.2,8.2,0,0,0,3.491-2.481,8.671,8.671,0,0,0,.219,1.412,7.055,7.055,0,0,0,.408,1.223h7.981Z" transform="translate(-186.741 -19.907)" fill="#00614d" fill-rule="evenodd"/>
        <path id="Path_3" data-name="Path 3" d="M273.711,52.232,284.587,21.3h-9.617l-5.724,19.241L263.586,21.3H253.46l10.687,30.932Z" transform="translate(-206.578 -20.472)" fill="#00614d"/>
        <path id="Path_4" data-name="Path 4" d="M334.42,52.232V44.818H319.137l14.846-16.169V21.3H308.509v7.225h13.776L307.44,45.261v6.971Z" transform="translate(-228.669 -20.472)" fill="#00614d"/>
        <path id="Path_5" data-name="Path 5" d="M374.228,39.787a6.361,6.361,0,0,1-1.737,4.318,6.747,6.747,0,0,1-5,1.914,3.63,3.63,0,0,1-2.469-.75,2.768,2.768,0,0,1-.863-2.209,3.118,3.118,0,0,1,1.17-2.641,10.993,10.993,0,0,1,4.431-1.7,26.962,26.962,0,0,0,3-.762,4.281,4.281,0,0,0,1.536-.809l-.065,2.641Zm9.109,11.88V32.113q.1-5.875-2.936-9.021T370.01,19.92q-7.5.08-10.634,3.031a10.261,10.261,0,0,0-3.137,7.839h8.229a4.309,4.309,0,0,1,1.371-2.824,5.557,5.557,0,0,1,3.728-1.075,6.865,6.865,0,0,1,3.267.691,2.272,2.272,0,0,1,1.329,2.014,2.3,2.3,0,0,1-.945,2.115,8.754,8.754,0,0,1-3.586,1.028,45.65,45.65,0,0,0-7.426,1.577,10.754,10.754,0,0,0-5.086,3.143,9.21,9.21,0,0,0-1.89,6.1,8.48,8.48,0,0,0,2.458,6.534q2.481,2.348,7.786,2.387a15.575,15.575,0,0,0,5.76-.975,8.2,8.2,0,0,0,3.491-2.481,8.672,8.672,0,0,0,.219,1.412,7.06,7.06,0,0,0,.408,1.223h7.987Z" transform="translate(-248.226 -19.907)" fill="#00614d" fill-rule="evenodd"/>
      </g>
      <g id="Group_2" data-name="Group 2" transform="translate(248.256 7.31)">
        <path id="Path_6" data-name="Path 6" d="M435.825,46.507h-4.968l-9.812-16.281-7.55,7.042v9.239H409.04V7.31h4.454V32.175l17.108-16.6h5.47L424.252,27.207Z" transform="translate(-409.04 -7.31)" fill="#ddb66d"/>
        <path id="Path_7" data-name="Path 7" d="M463.745,46.507V15.575h-4.4V46.507Zm0-34.648h-4.4V7.31h4.4v4.549Z" transform="translate(-429.629 -7.31)" fill="#ddb66d" fill-rule="evenodd"/>
        <path id="Path_8" data-name="Path 8" d="M494.161,34.561v-8.43h4.082V34.94a14.74,14.74,0,0,1-1.235,6.12,10.265,10.265,0,0,1-3.875,4.507,12.469,12.469,0,0,1-6.77,1.755q-6.362-.151-9.21-3.722a13.332,13.332,0,0,1-2.794-8.725V7.31h4.33v8.265h19.56v3.2h-19.56V34.5a10.411,10.411,0,0,0,1.814,6.41c1.229,1.666,3.208,2.528,5.919,2.588q4-.089,5.878-2.582a10.186,10.186,0,0,0,1.861-6.357Z" transform="translate(-435.771 -7.31)" fill="#ddb66d"/>
        <path id="Path_9" data-name="Path 9" d="M542.04,40.409a8.7,8.7,0,0,1-3.415,6.457,11.56,11.56,0,0,1-7.095,2.351q-3.7-.018-5.388-1.524a5.343,5.343,0,0,1-1.66-4.259q.009-3.527,2.286-4.9a16.787,16.787,0,0,1,6.77-1.831q3.456-.372,5.648-.679A4.693,4.693,0,0,0,542.1,34.88l-.059,5.529Zm4.454,11.254V32.1q.089-5.884-2.771-9.021t-9.8-3.172q-6.992.08-9.936,3.031a10.628,10.628,0,0,0-2.954,7.839h4.141a7.715,7.715,0,0,1,2.133-5.429q1.994-1.958,6.427-1.991,4.36.018,6.315,1.944a7.224,7.224,0,0,1,1.926,5.476c-.136.91-.933,1.56-2.381,1.944a39.835,39.835,0,0,1-6.108.951,37.36,37.36,0,0,0-7.077,1.276,9.043,9.043,0,0,0-4.643,2.948,9.442,9.442,0,0,0-1.666,5.967,7.982,7.982,0,0,0,2.463,6.238q2.508,2.313,8.034,2.369a14.611,14.611,0,0,0,7.29-1.843A9.483,9.483,0,0,0,542.111,46c.024.219.041.756.065,1.6s.047,1.69.077,2.528a12.26,12.26,0,0,0,.106,1.524h4.135Z" transform="translate(-454.491 -12.466)" fill="#ddb66d" fill-rule="evenodd"/>
        <path id="Path_10" data-name="Path 10" d="M585.853,48.717a8.87,8.87,0,0,0,7.249-3.131q2.587-3.137,2.629-9.452-.071-6.026-2.771-9.287a8.863,8.863,0,0,0-7.107-3.3,9.085,9.085,0,0,0-7.071,3.231q-2.774,3.19-2.871,9.033a15.945,15.945,0,0,0,2.422,9.139q2.446,3.633,7.52,3.763ZM571.71,60.072V20.733h4.271v7.349q1.471-4.555,4.49-6.392a11.523,11.523,0,0,1,6.333-1.772,12.229,12.229,0,0,1,9.623,4.259q3.66,4.227,3.769,12.276-.071,7.647-3.533,11.815a11.821,11.821,0,0,1-9.482,4.218,11.687,11.687,0,0,1-6.439-1.879,11.936,11.936,0,0,1-4.7-6.357v15.82Z" transform="translate(-475.612 -12.469)" fill="#ddb66d" fill-rule="evenodd"/>
      </g>
      <g id="Group_3" data-name="Group 3" transform="translate(292.42 8.669)">
        <path id="Path_11" data-name="Path 11" d="M484.58,17.428V16.4h-.78v1.028Z" transform="translate(-483.8 -12.389)" fill="#00614d"/>
        <path id="Path_12" data-name="Path 12" d="M489.24,12.877a1.46,1.46,0,0,1-.473.963,1.442,1.442,0,0,1-.963.354,1.254,1.254,0,0,1-1.034-.514,2.588,2.588,0,0,1-.414-1.548,2.232,2.232,0,0,1,.419-1.483,1.331,1.331,0,0,1,1.057-.449,1.42,1.42,0,0,1,.969.337,1.438,1.438,0,0,1,.449.957h.709a1.977,1.977,0,0,0-.632-1.376,2.2,2.2,0,0,0-1.483-.508,2.075,2.075,0,0,0-1.583.6,2.752,2.752,0,0,0-.6,1.92,2.974,2.974,0,0,0,.6,1.979,1.956,1.956,0,0,0,1.548.662,2.129,2.129,0,0,0,1.441-.526,2.173,2.173,0,0,0,.7-1.376h-.709Z" transform="translate(-484.561 -9.61)" fill="#00614d"/>
        <path id="Path_13" data-name="Path 13" d="M495.92,14.192a1.549,1.549,0,0,1-1.246-.532,2.234,2.234,0,0,1-.437-1.465,2.239,2.239,0,0,1,.443-1.459,1.572,1.572,0,0,1,1.246-.526,1.525,1.525,0,0,1,1.229.526,2.239,2.239,0,0,1,.437,1.459,2.268,2.268,0,0,1-.443,1.465,1.5,1.5,0,0,1-1.229.532Zm0,.591a2.266,2.266,0,0,0,1.725-.709,2.711,2.711,0,0,0,.638-1.873,2.717,2.717,0,0,0-.638-1.879,2.236,2.236,0,0,0-1.731-.7,2.323,2.323,0,0,0-1.755.709,2.717,2.717,0,0,0-.65,1.873,2.737,2.737,0,0,0,.638,1.867,2.339,2.339,0,0,0,1.772.715Z" transform="translate(-487.774 -9.614)" fill="#00614d" fill-rule="evenodd"/>
        <path id="Path_14" data-name="Path 14" d="M509.226,14.649V11.365a1.841,1.841,0,0,0-.431-1.329,1.66,1.66,0,0,0-2.038-.142,1.56,1.56,0,0,0-.585.874,1.53,1.53,0,0,0-.5-.9,1.385,1.385,0,0,0-.9-.254,1.462,1.462,0,0,0-.927.3,1.953,1.953,0,0,0-.638,1.057V9.74h-.656v4.909h.7V12.233a3.223,3.223,0,0,1,.266-1.441,1.022,1.022,0,0,1,.975-.585.992.992,0,0,1,.8.278,1.635,1.635,0,0,1,.272,1.1v3.06h.7V11.589a1.549,1.549,0,0,1,.337-.992,1.113,1.113,0,0,1,.88-.414.96.96,0,0,1,.78.319,1.619,1.619,0,0,1,.289,1.069v3.072h.679Z" transform="translate(-491.473 -9.61)" fill="#00614d" fill-rule="evenodd"/>
      </g>
      <g id="Group_4" data-name="Group 4" transform="translate(155.192 48.887)">
        <path id="Path_15" data-name="Path 15" d="M257.794,79.32c.567,0,.857.165.863.49l-.053.2c-1.382,2.1-2.2,3.3-2.458,3.586h-.337c-.071,0-.065-.23.024-.691l.526-2.824.047-.106a1.15,1.15,0,0,1,.857-.6l.532-.053Zm-4.4.018h.2c.455,0,.715.124.786.366l-.047.349-2.4,3.533-.041.018h-.337c-.1,0-.065-.354.112-1.057a23.383,23.383,0,0,1,.467-2.605,1.162,1.162,0,0,1,.874-.567,1.662,1.662,0,0,1,.384-.035Z" transform="translate(-251.506 -78.357)" fill="#00614d" fill-rule="evenodd"/>
        <path id="Path_16" data-name="Path 16" d="M266.857,92.06h.638c1.382,0,2.079.236,2.079.709a65.96,65.96,0,0,1-2.41,7.485h.065a19.548,19.548,0,0,0,3.019-2.475q2.215-2.3,3.55-3.952h.065l.065.059v.236q0,.8-2.812,3.568a21.7,21.7,0,0,1-2.812,2.564l-1.341.945a11.244,11.244,0,0,1-.969,2.387,7.634,7.634,0,0,1-4.153,3.42c-.213,0-.337-.224-.366-.679v-.207q0-2.72,3.952-5.039a14.307,14.307,0,0,1,1.1-3.952q-2.2,3.093-3.887,3.1h-.2a1.945,1.945,0,0,1-1.908-1.418,2.724,2.724,0,0,1-.136-.827v-.236q0-2.782,3.751-4.98a6.591,6.591,0,0,1,2.706-.7Zm-4.726,6.392c0,.608.278.916.839.916h.1q1.586,0,4.354-5.1a7.837,7.837,0,0,0,.6-1.27,1.154,1.154,0,0,0-.868-.325h-.266q-1.648,0-4.088,3.6a4.633,4.633,0,0,0-.673,2.18Zm.673,6.634v.354c0,.278.035.414.1.414a4.181,4.181,0,0,0,2.079-2.5,4.7,4.7,0,0,0,.366-1.418h-.035c-1.678.975-2.511,2.026-2.511,3.155Z" transform="translate(-255.146 -83.571)" fill="#00614d" fill-rule="evenodd"/>
        <path id="Path_17" data-name="Path 17" d="M284.072,91.56h.4a2.327,2.327,0,0,1,1.879.916,1.735,1.735,0,0,1,.2.709q0,2.251-5.329,4.07l-.567.148v.177a1.618,1.618,0,0,0,.939,1.589,2.335,2.335,0,0,0,.768.148h.467q2.357,0,5.967-4.1l1.441-1.884h.035c.065,0,.112.106.136.325q0,1.01-2.948,3.952a8.446,8.446,0,0,1-5.394,2.446h-.4a2.856,2.856,0,0,1-2.883-2.121l-.065-.65V96.9q0-1.949,2.41-4.129a4.726,4.726,0,0,1,2.942-1.211Zm-3.42,5.187.035.03a6.651,6.651,0,0,0,3.42-1.825,2.876,2.876,0,0,0,.738-1.648v-.384c-.047-.473-.272-.709-.668-.709h-.3q-1.639,0-2.883,3.3a6.416,6.416,0,0,0-.343,1.235Z" transform="translate(-262.643 -83.366)" fill="#00614d" fill-rule="evenodd"/>
        <path id="Path_18" data-name="Path 18" d="M302.352,91.86h.2a1.441,1.441,0,0,1,1.376,1.034l.035.354a16.782,16.782,0,0,1-1.341,4.07,6.306,6.306,0,0,0-.437,1.412v.118c0,.177.136.266.4.266h.035q.966,0,4.253-3.834l1.376-1.619h.035c.059,0,.106.106.136.325q-.115.851-3.686,4.507c-1.217,1.122-2.144,1.678-2.782,1.678h-.2a1.464,1.464,0,0,1-1.406-1.093l-.035-.3v-.03a33.456,33.456,0,0,1,1.808-5.482v-.089c0-.177-.136-.266-.4-.266q-1.3.062-4.762,4.714a18.628,18.628,0,0,0-1.205,2.121c-.2.236-.75.354-1.642.354a.369.369,0,0,1-.2-.148v-.236q2.047-6.079,2.511-7.2a1.161,1.161,0,0,1,.975-.5l.7-.148c.177.024.266.1.266.236q-1.71,4.741-1.707,4.862,3.934-5.113,5.695-5.116Z" transform="translate(-268.86 -83.489)" fill="#00614d"/>
        <path id="Path_19" data-name="Path 19" d="M319.486,91.51h.366a2.083,2.083,0,0,1,2.009,1.122l.065.443v.03c0,.685-.449,1.152-1.341,1.418l-.337.03h-.136a.914.914,0,0,1-.768-.354v-.035l.567-.354a.982.982,0,0,0,.366-.738v-.325c0-.36-.236-.567-.7-.62h-.1c-1.193,0-2.28,1.1-3.249,3.3a4.682,4.682,0,0,0-.366,1.589v.5a1.621,1.621,0,0,0,1.04,1.619,2.17,2.17,0,0,0,.839.148h.366q2.853,0,6.735-5.039l.668-.886h.035l.1.089V93.6q0,1.161-3.249,4.277l-1.04.768a7.236,7.236,0,0,1-3.988,1.388h-.4a3.083,3.083,0,0,1-2.948-1.885,3.037,3.037,0,0,1-.165-.945v-.207q0-2.428,3.119-4.655a5.032,5.032,0,0,1,2.517-.827Z" transform="translate(-277.02 -83.346)" fill="#00614d"/>
        <path id="Path_20" data-name="Path 20" d="M335.253,77.69h.065c.313.224.467.738.467,1.53v.3q0,4.856-4.49,10.025a7.668,7.668,0,0,0-.236,1.707v.5a1.7,1.7,0,0,0,.7,1.589l.366.089h.236q1.825,0,6.067-5.718l.035-.03h.065c.047,0,.089.136.136.414q-.23,1.09-3.621,4.537-1.994,1.737-3.249,1.737h-.3a2.245,2.245,0,0,1-2.18-1.766,5.145,5.145,0,0,1-.136-1.122,30.007,30.007,0,0,1,1.506-6.575,25.633,25.633,0,0,1,2.345-4.8,7.828,7.828,0,0,1,1.879-2.3l.343-.112Zm-1.241,2.328a18.627,18.627,0,0,0-1.441,3.332,26.134,26.134,0,0,0-1.04,4.425l-.065.591a9.8,9.8,0,0,0,2.812-6.4,11.454,11.454,0,0,0-.2-1.944h-.065Z" transform="translate(-283.294 -77.69)" fill="#00614d" fill-rule="evenodd"/>
        <path id="Path_21" data-name="Path 21" d="M344.215,85.47h.065c.939.39,1.406.685,1.406.886-.041.709-.219,1.063-.538,1.063h-.1a2.73,2.73,0,0,1-1.477-.5.343.343,0,0,1-.136-.236v-.03a2.541,2.541,0,0,1,.638-1.093l.142-.089Zm.165,3.864a.237.237,0,0,1,.2.236,50.482,50.482,0,0,0-2.245,6.486v.266c0,.313.165.473.5.473h.2q1.329,0,5.464-5.157l.538-.65h.035c.065.012.1.089.1.236v.118q0,.7-2.717,3.657c-1.731,1.707-3.119,2.564-4.153,2.564h-.266a1.341,1.341,0,0,1-1.376-.886l-.065-.532a38,38,0,0,1,1.944-5.748.962.962,0,0,1,1-.916,3.83,3.83,0,0,1,.833-.148Z" transform="translate(-287.967 -80.874)" fill="#00614d" fill-rule="evenodd"/>
        <path id="Path_22" data-name="Path 22" d="M356.977,92.06h.638c1.382,0,2.079.236,2.079.709a65.969,65.969,0,0,1-2.41,7.485h.065a19.543,19.543,0,0,0,3.019-2.475q2.215-2.3,3.55-3.952h.065l.065.059v.236q0,.8-2.812,3.568a21.7,21.7,0,0,1-2.812,2.564l-1.341.945a11.24,11.24,0,0,1-.969,2.387,7.634,7.634,0,0,1-4.153,3.42c-.213,0-.337-.224-.366-.679v-.207q0-2.72,3.952-5.039a14.306,14.306,0,0,1,1.1-3.952q-2.2,3.093-3.887,3.1h-.2a1.945,1.945,0,0,1-1.908-1.418,2.724,2.724,0,0,1-.136-.827v-.236q0-2.782,3.751-4.98a6.568,6.568,0,0,1,2.706-.7Zm-4.726,6.392c0,.608.278.916.839.916h.1q1.586,0,4.354-5.1a7.838,7.838,0,0,0,.6-1.27,1.154,1.154,0,0,0-.868-.325h-.266q-1.648,0-4.088,3.6a4.633,4.633,0,0,0-.673,2.18Zm.668,6.634v.354c0,.278.035.414.1.414a4.181,4.181,0,0,0,2.079-2.5,4.7,4.7,0,0,0,.366-1.418h-.035q-2.508,1.462-2.511,3.155Z" transform="translate(-292.027 -83.571)" fill="#00614d" fill-rule="evenodd"/>
        <path id="Path_23" data-name="Path 23" d="M372.445,85.47h.065c.939.39,1.406.685,1.406.886-.041.709-.219,1.063-.538,1.063h-.1a2.73,2.73,0,0,1-1.477-.5.343.343,0,0,1-.136-.236v-.03a2.541,2.541,0,0,1,.638-1.093l.142-.089Zm.165,3.864a.237.237,0,0,1,.2.236,50.482,50.482,0,0,0-2.245,6.486v.266c0,.313.165.473.5.473h.2q1.329,0,5.465-5.157l.538-.65h.035c.065.012.1.089.1.236v.118q0,.7-2.717,3.657c-1.731,1.707-3.119,2.564-4.153,2.564h-.266a1.341,1.341,0,0,1-1.376-.886l-.065-.532a37.989,37.989,0,0,1,1.944-5.748.962.962,0,0,1,1-.916,3.829,3.829,0,0,1,.833-.148Z" transform="translate(-299.521 -80.874)" fill="#00614d" fill-rule="evenodd"/>
        <path id="Path_24" data-name="Path 24" d="M387.168,91.86h.2a1.441,1.441,0,0,1,1.376,1.034l.035.354a16.784,16.784,0,0,1-1.341,4.07A6.308,6.308,0,0,0,387,98.73v.118c0,.177.136.266.4.266h.035q.966,0,4.253-3.834l1.376-1.619h.035c.059,0,.106.106.136.325q-.115.851-3.686,4.507c-1.217,1.122-2.145,1.678-2.782,1.678h-.207a1.464,1.464,0,0,1-1.406-1.093l-.035-.3v-.03a33.459,33.459,0,0,1,1.808-5.482v-.089c0-.177-.136-.266-.4-.266q-1.3.062-4.761,4.714a18.619,18.619,0,0,0-1.205,2.121c-.2.236-.75.354-1.642.354a.369.369,0,0,1-.2-.148v-.236q2.047-6.079,2.511-7.2a1.161,1.161,0,0,1,.975-.5l.7-.148c.177.024.266.1.266.236q-1.71,4.741-1.707,4.862,3.943-5.113,5.7-5.116Z" transform="translate(-303.568 -83.489)" fill="#00614d"/>
        <path id="Path_25" data-name="Path 25" d="M420.7,91.86h.236a1.2,1.2,0,0,1,1.306.886V93.1a23.314,23.314,0,0,1-1.04,3.686l1.441-1.885q2.5-2.977,4.023-2.977h.036c.892.071,1.341.467,1.341,1.182v.236a16.614,16.614,0,0,1-1.306,3.864,6.446,6.446,0,0,0-.4,1.56c0,.278.154.414.467.414h.136q1.028-.062,4.188-3.864a17.938,17.938,0,0,1,1.376-1.648h.035l.065.059v.3q-.292,1.232-3.923,4.891a4.237,4.237,0,0,1-2.582,1.27h-.236a1.322,1.322,0,0,1-1.276-.945l-.035-.3v-.03a12.736,12.736,0,0,1,1.376-4.188,5.054,5.054,0,0,0,.437-1.441v-.059c0-.219-.165-.337-.5-.354q-1.311,0-4.691,5.157c-.7,1.359-1.193,2.032-1.477,2.032l-.939.089h-.1a.243.243,0,0,1-.236-.118v-.148q2.012-6.292,2.009-6.6V93.1c0-.195-.124-.3-.366-.3h-.035q-1.116,0-3.988,4.36c-.177.248-.668,1.117-1.477,2.593-.13.219-.461.325-1,.325,0,.041-.189.059-.567.059h-.065l-.136-.118v-.207q0-.195,1.843-5.453a7.936,7.936,0,0,1,.839-2.091,5.568,5.568,0,0,1,1.376-.3h.165a.244.244,0,0,1,.165.236v.03L415.7,96.6v.03a26.433,26.433,0,0,1,2.647-3.45A3.725,3.725,0,0,1,420.7,91.86Z" transform="translate(-317.511 -83.489)" fill="#00614d"/>
        <path id="Path_26" data-name="Path 26" d="M447.072,91.56h.4a2.327,2.327,0,0,1,1.879.916,1.735,1.735,0,0,1,.2.709q0,2.251-5.329,4.07l-.567.148v.177a1.618,1.618,0,0,0,.939,1.589,2.335,2.335,0,0,0,.768.148h.467q2.357,0,5.967-4.1l1.441-1.884h.035c.065,0,.112.106.136.325q0,1.01-2.948,3.952a8.446,8.446,0,0,1-5.394,2.446h-.4a2.856,2.856,0,0,1-2.883-2.121l-.065-.65V96.9q0-1.949,2.41-4.129a4.726,4.726,0,0,1,2.942-1.211Zm-3.421,5.187.035.03a6.651,6.651,0,0,0,3.42-1.825,2.876,2.876,0,0,0,.738-1.648v-.384c-.053-.473-.272-.709-.668-.709h-.3q-1.639,0-2.883,3.3a6.018,6.018,0,0,0-.343,1.235Z" transform="translate(-329.35 -83.366)" fill="#00614d" fill-rule="evenodd"/>
        <path id="Path_27" data-name="Path 27" d="M464.883,77.79h.065a1.94,1.94,0,0,1,.638,1.707q0,3.367-4.253,7.633a1.563,1.563,0,0,0-.7,1.093l-.839,2.8,1.306-1.707q2.72-3.217,4.59-3.214h.337a1.658,1.658,0,0,1,1.577,1.063l.035.325v.089q0,1.586-4.088,3.184v.03q.9,2.508,1.879,2.5h.2c.862-.047,2.511-1.583,4.962-4.6a6.3,6.3,0,0,1,.738-.886h.035c.053,0,.1.089.136.266q0,.709-2.546,3.48-2.614,2.774-3.923,2.771h-.165q-1.258,0-2.682-2.328a2.75,2.75,0,0,1-.2-.886c0-.207.549-.52,1.642-.945q2.242-1.081,2.245-2.091c0-.508-.278-.768-.839-.768h-.337q-1.63.195-4.389,4.041a15.064,15.064,0,0,0-1.477,2.593,1.653,1.653,0,0,1-1.14.384,1.621,1.621,0,0,1-.6.089.2.2,0,0,1-.165-.207q2.517-8.117,3.45-10.462a18.675,18.675,0,0,1,2.782-4.626c.9-.9,1.483-1.335,1.731-1.335ZM461.168,86.4h.035q2.915-2.738,2.918-5.335a6.049,6.049,0,0,0-.266-1.707h-.065a5.486,5.486,0,0,0-1.306,2.3,43.084,43.084,0,0,0-1.317,4.744Z" transform="translate(-335.571 -77.731)" fill="#00614d" fill-rule="evenodd"/>
        <path id="Path_28" data-name="Path 28" d="M481.511,86.47h.035a.21.21,0,0,1,.236.236l-1.075,3.48h1.14c.154,0,.236.047.236.148-.047.354-.13.532-.236.532h-1.311a10.117,10.117,0,0,0-.738,2.091,17.25,17.25,0,0,0-1.075,3.509v.3a.391.391,0,0,0,.4.354h.3q1.391,0,5.128-4.921l.638-.827h.035c.065.018.1.077.1.177v.177q0,1.019-3.722,4.714a5.074,5.074,0,0,1-2.747,1.53h-.337a1.4,1.4,0,0,1-1.477-.945.848.848,0,0,1-.065-.384V96.46a26.547,26.547,0,0,1,1.607-5.571l-.035-.03h-1.306l-.1-.089v-.03c0-.372.154-.561.467-.561h1.205a6.778,6.778,0,0,0,.6-1.589c.419-1.193.7-1.814.839-1.855a4.888,4.888,0,0,1,1.252-.266Z" transform="translate(-343.78 -81.283)" fill="#00614d"/>
        <path id="Path_29" data-name="Path 29" d="M491.862,91.56h.4a2.327,2.327,0,0,1,1.879.916,1.734,1.734,0,0,1,.2.709q0,2.251-5.329,4.07l-.567.148v.177a1.618,1.618,0,0,0,.939,1.589,2.335,2.335,0,0,0,.768.148h.467q2.357,0,5.967-4.1l1.441-1.884h.035c.065,0,.112.106.136.325q0,1.01-2.948,3.952a8.447,8.447,0,0,1-5.394,2.446h-.4a2.856,2.856,0,0,1-2.883-2.121l-.065-.65V96.9q0-1.949,2.41-4.129a4.726,4.726,0,0,1,2.942-1.211Zm-3.42,5.187.035.03a6.651,6.651,0,0,0,3.421-1.825,2.876,2.876,0,0,0,.738-1.648v-.384c-.053-.473-.272-.709-.668-.709h-.3q-1.639,0-2.883,3.3a6.014,6.014,0,0,0-.343,1.235Z" transform="translate(-347.681 -83.366)" fill="#00614d" fill-rule="evenodd"/>
        <path id="Path_30" data-name="Path 30" d="M508.822,77.84c.23,0,.36.414.4,1.241v.03q0,5.361-4.726,10.462l-.939,1.093-.035.118v.236l-.035.354c0,1.069.266,1.76.8,2.062a1.211,1.211,0,0,0,.5.148h.366q1.117,0,2.18-1.56v-.03a3.473,3.473,0,0,1-.366-1.56,5.039,5.039,0,0,1,1.808-4.041h.1a1.5,1.5,0,0,1,.4,1.122v.236a8.254,8.254,0,0,1-1.1,4.188v.03a.736.736,0,0,0,.7.532h.077q1.311,0,4.726-4.655h.1c.065,0,.1.106.1.325q-.071.868-2.783,3.775a3.7,3.7,0,0,1-2.245,1.211,1.474,1.474,0,0,1-1.1-.5l-.638.62a3.975,3.975,0,0,1-2.582,1.182H504.2a2.468,2.468,0,0,1-2.381-1.914,5.337,5.337,0,0,1-.136-1.034V91.1q0-4.032,4.49-10.58a12.525,12.525,0,0,1,2.245-2.446l.408-.23ZM503.73,89.454q3.952-4.138,3.952-8.017a6.01,6.01,0,0,0-.2-1.388h-.035a8.687,8.687,0,0,0-1.306,1.914,23.367,23.367,0,0,0-1.743,4.6q-.328,1.117-.668,2.895Z" transform="translate(-353.889 -77.751)" fill="#00614d" fill-rule="evenodd"/>
        <path id="Path_31" data-name="Path 31" d="M521.334,85.47h.065c.939.39,1.406.685,1.406.886-.041.709-.219,1.063-.537,1.063h-.1a2.746,2.746,0,0,1-1.477-.5.344.344,0,0,1-.136-.236v-.03a2.54,2.54,0,0,1,.638-1.093l.142-.089Zm.171,3.864a.237.237,0,0,1,.2.236,50.457,50.457,0,0,0-2.245,6.486v.266c0,.313.165.473.5.473h.2q1.329,0,5.464-5.157l.538-.65h.035c.065.012.1.089.1.236v.118q0,.7-2.712,3.657c-1.731,1.707-3.119,2.564-4.153,2.564h-.266a1.341,1.341,0,0,1-1.377-.886l-.065-.532a38,38,0,0,1,1.944-5.748.962.962,0,0,1,1-.916,3.63,3.63,0,0,1,.827-.148Z" transform="translate(-360.457 -80.874)" fill="#00614d" fill-rule="evenodd"/>
        <path id="Path_32" data-name="Path 32" d="M536.694,79.32c.567,0,.857.165.862.49l-.053.2c-1.382,2.1-2.2,3.3-2.458,3.586h-.337c-.071,0-.065-.23.024-.691l.526-2.824.047-.106a1.15,1.15,0,0,1,.857-.6l.532-.053Zm-4.4.018h.2c.455,0,.715.124.786.366l-.047.349-2.4,3.533-.041.018h-.337c-.1,0-.065-.354.112-1.057a23.4,23.4,0,0,1,.467-2.605,1.15,1.15,0,0,1,.874-.567,1.7,1.7,0,0,1,.384-.035Z" transform="translate(-365.645 -78.357)" fill="#00614d" fill-rule="evenodd"/>
        <path id="Path_33" data-name="Path 33" d="M361.224,85.47h.065a8.531,8.531,0,0,1,.874.408,15.739,15.739,0,0,0,2.528.951c.425.089.148,1.158-.124,1.182s-3.338-.52-3.934-1.052l-.03-.03a.345.345,0,0,1-.154-.248v-.03a2.541,2.541,0,0,1,.638-1.093l.136-.089Z" transform="translate(-296.091 -80.874)" fill="#00614d"/>
        <path id="Path_34" data-name="Path 34" d="M317.44,106.49h.065c.939.39,1.406.685,1.406.886-.041.709-.219,1.063-.538,1.063h-.1a2.745,2.745,0,0,1-1.477-.5.343.343,0,0,1-.136-.236v-.03a2.54,2.54,0,0,1,.638-1.093l.142-.089Z" transform="translate(-278.17 -89.476)" fill="#00614d"/>
      </g>
      <g id="Group_5" data-name="Group 5" transform="translate(16.16 13.655)">
        <path id="Path_35" data-name="Path 35" d="M102.377,30.764a24.666,24.666,0,0,1,4.915-.39l3.48,19.389A52.43,52.43,0,0,0,76.49,57.147c13.788-12.1,31.239-9.972,31.239-9.972l-2.617-14.657s-1.069.083-2.245.3l-.49-2.05Z" transform="translate(-40.85 -23.09)" fill="#ddb66d"/>
        <path id="Path_36" data-name="Path 36" d="M112.267,71.58l-.189-.024a53.389,53.389,0,0,0-10.385-2.5A57.321,57.321,0,0,0,76.65,71.066c14.243-7.573,28.864-3.869,32.432-2.847l-.721-4.029c.863.065,1.737.148,2.623.254l1.282,7.136Z" transform="translate(-40.915 -36.933)" fill="#ddb66d"/>
        <path id="Path_37" data-name="Path 37" d="M90.847,21.156A37.682,37.682,0,0,0,76.61,33.916,38.445,38.445,0,0,1,98.291,20.848l3.344,15.088C84.916,38.063,76.61,52.017,76.61,52.017,87.947,38.1,104.765,38.1,104.765,38.1l-4.1-17.7-.514-2.339a33.049,33.049,0,0,0-9.3,3.1Z" transform="translate(-40.899 -18.054)" fill="#ddb66d"/>
        <path id="Path_38" data-name="Path 38" d="M26.965,30.764a24.666,24.666,0,0,0-4.915-.39L18.57,49.763a52.439,52.439,0,0,1,34.287,7.384c-13.788-12.1-31.239-9.972-31.239-9.972l2.617-14.657s1.069.083,2.245.3l.484-2.05Z" transform="translate(-17.146 -23.09)" fill="#ddb66d"/>
        <path id="Path_39" data-name="Path 39" d="M16.16,71.58l.189-.024a53.389,53.389,0,0,1,10.385-2.5,57.321,57.321,0,0,1,25.042,2.009C37.533,63.493,22.912,67.2,19.344,68.219l.721-4.029c-.863.065-1.737.148-2.623.254L16.16,71.58Z" transform="translate(-16.16 -36.933)" fill="#ddb66d"/>
        <path id="Path_40" data-name="Path 40" d="M42.738,21.151a37.682,37.682,0,0,1,14.237,12.76A38.445,38.445,0,0,0,35.295,20.844L31.951,35.932c16.718,2.127,25.024,16.08,25.024,16.08C45.645,38.088,28.82,38.088,28.82,38.088l4.094-17.7.514-2.339A32.732,32.732,0,0,1,39.7,19.793a33.211,33.211,0,0,1,3.036,1.359Z" transform="translate(-21.341 -18.05)" fill="#ddb66d"/>
        <path id="Path_41" data-name="Path 41" d="M76.28,53.722c0-5,.065-9.062.148-9.062s.148,4.058.148,9.062-.065,9.062-.148,9.062-.148-4.058-.148-9.062Z" transform="translate(-40.764 -28.94)" fill="#ddb66d"/>
      </g>
    </g>
  </g>
</svg>
